<?xml version="1.0" encoding="UTF-8" standalone="no"?>
<!DOCTYPE svg PUBLIC "-//W3C//DTD SVG 1.1//EN" "http://www.w3.org/Graphics/SVG/1.1/DTD/svg11.dtd">
<svg version="1.1" xmlns="http://www.w3.org/2000/svg" xmlns:xlink="http://www.w3.org/1999/xlink" preserveAspectRatio="xMidYMid meet" viewBox="0 0 640 640" width="640" height="640"><defs><path d="M750.23 304.59L750.23 304.59L750.23 304.59L750.23 304.59Z" id="b7CJiKYZfX"></path><path d="M750.23 304.59L750.23 304.59L750.23 304.59L750.23 304.59Z" id="a4MG7JKGQL"></path><path d="M827.53 127.29L827.53 127.29L827.53 127.29L827.53 127.29Z" id="cQ7KERDbl"></path><path d="M827.53 127.29L827.53 127.29L827.53 127.29L827.53 127.29Z" id="e5k8CBcIoB"></path><path d="M153.63 92.89C152.73 92.89 152.23 91.79 152.93 91.09C156.13 87.69 158.33 85.19 158.03 84.99C157.83 84.79 155.23 86.89 151.93 90.09C151.23 90.69 150.13 90.29 150.13 89.39C150.03 81.29 149.53 75.29 149.03 75.29C148.53 75.29 148.03 81.29 147.93 89.39C147.93 90.29 146.83 90.79 146.13 90.09C142.73 86.89 140.23 84.69 140.03 84.99C139.83 85.19 141.93 87.79 145.13 91.09C145.73 91.79 145.33 92.89 144.43 92.89C136.33 92.99 130.33 93.49 130.33 93.99C130.33 94.49 136.33 94.99 144.43 95.09C145.33 95.09 145.83 96.19 145.13 96.89C141.93 100.29 139.73 102.79 140.03 102.99C140.23 103.19 142.83 101.09 146.13 97.89C146.83 97.29 147.93 97.69 147.93 98.59C148.03 106.69 148.53 112.69 149.03 112.69C149.53 112.69 150.03 106.69 150.13 98.59C150.13 97.69 151.23 97.19 151.93 97.89C155.33 101.09 157.83 103.29 158.03 102.99C158.23 102.79 156.13 100.19 152.93 96.89C152.23 96.19 152.73 95.09 153.63 95.09C161.73 94.99 167.73 94.49 167.73 93.99C167.73 93.49 161.73 92.99 153.63 92.89Z" id="a1y7LajJcT"></path><path d="M153.63 92.89C152.73 92.89 152.23 91.79 152.93 91.09C156.13 87.69 158.33 85.19 158.03 84.99C157.83 84.79 155.23 86.89 151.93 90.09C151.23 90.69 150.13 90.29 150.13 89.39C150.03 81.29 149.53 75.29 149.03 75.29C148.53 75.29 148.03 81.29 147.93 89.39C147.93 90.29 146.83 90.79 146.13 90.09C142.73 86.89 140.23 84.69 140.03 84.99C139.83 85.19 141.93 87.79 145.13 91.09C145.73 91.79 145.33 92.89 144.43 92.89C136.33 92.99 130.33 93.49 130.33 93.99C130.33 94.49 136.33 94.99 144.43 95.09C145.33 95.09 145.83 96.19 145.13 96.89C141.93 100.29 139.73 102.79 140.03 102.99C140.23 103.19 142.83 101.09 146.13 97.89C146.83 97.29 147.93 97.69 147.93 98.59C148.03 106.69 148.53 112.69 149.03 112.69C149.53 112.69 150.03 106.69 150.13 98.59C150.13 97.69 151.23 97.19 151.93 97.89C155.33 101.09 157.83 103.29 158.03 102.99C158.23 102.79 156.13 100.19 152.93 96.89C152.23 96.19 152.73 95.09 153.63 95.09C161.73 94.99 167.73 94.49 167.73 93.99C167.73 93.49 161.73 92.99 153.63 92.89Z" id="b3cTc6zaA"></path><path d="M116.33 542.99C115.43 542.99 114.93 541.89 115.63 541.19C118.83 537.79 121.03 535.29 120.73 535.09C120.53 534.89 117.93 536.99 114.63 540.19C113.93 540.79 112.83 540.39 112.83 539.49C112.73 531.39 112.23 525.39 111.73 525.39C111.23 525.39 110.73 531.39 110.63 539.49C110.63 540.39 109.53 540.89 108.83 540.19C105.43 536.99 102.93 534.79 102.73 535.09C102.53 535.29 104.63 537.89 107.83 541.19C108.43 541.89 108.03 542.99 107.13 542.99C99.03 543.09 93.03 543.59 93.03 544.09C93.03 544.59 99.03 545.09 107.13 545.19C108.03 545.19 108.53 546.29 107.83 546.99C104.63 550.39 102.43 552.89 102.73 553.09C102.93 553.29 105.53 551.19 108.83 547.99C109.53 547.39 110.63 547.79 110.63 548.69C110.73 556.79 111.23 562.79 111.73 562.79C112.23 562.79 112.73 556.79 112.83 548.69C112.83 547.79 113.93 547.29 114.63 547.99C118.03 551.19 120.53 553.39 120.73 553.09C120.93 552.89 118.83 550.29 115.63 546.99C114.93 546.29 115.43 545.19 116.33 545.19C124.43 545.09 130.43 544.59 130.43 544.09C130.43 543.59 124.43 543.09 116.33 542.99Z" id="b6bQjA44F"></path><path d="M116.33 542.99C115.43 542.99 114.93 541.89 115.63 541.19C118.83 537.79 121.03 535.29 120.73 535.09C120.53 534.89 117.93 536.99 114.63 540.19C113.93 540.79 112.83 540.39 112.83 539.49C112.73 531.39 112.23 525.39 111.73 525.39C111.23 525.39 110.73 531.39 110.63 539.49C110.63 540.39 109.53 540.89 108.83 540.19C105.43 536.99 102.93 534.79 102.73 535.09C102.53 535.29 104.63 537.89 107.83 541.19C108.43 541.89 108.03 542.99 107.13 542.99C99.03 543.09 93.03 543.59 93.03 544.09C93.03 544.59 99.03 545.09 107.13 545.19C108.03 545.19 108.53 546.29 107.83 546.99C104.63 550.39 102.43 552.89 102.73 553.09C102.93 553.29 105.53 551.19 108.83 547.99C109.53 547.39 110.63 547.79 110.63 548.69C110.73 556.79 111.23 562.79 111.73 562.79C112.23 562.79 112.73 556.79 112.83 548.69C112.83 547.79 113.93 547.29 114.63 547.99C118.03 551.19 120.53 553.39 120.73 553.09C120.93 552.89 118.83 550.29 115.63 546.99C114.93 546.29 115.43 545.19 116.33 545.19C124.43 545.09 130.43 544.59 130.43 544.09C130.43 543.59 124.43 543.09 116.33 542.99Z" id="cnVawJ5rG"></path><path d="M116.33 821.29C115.43 821.29 114.93 820.19 115.63 819.49C118.83 816.09 121.03 813.59 120.73 813.39C120.53 813.19 117.93 815.29 114.63 818.49C113.93 819.09 112.83 818.69 112.83 817.79C112.73 809.69 112.23 803.69 111.73 803.69C111.23 803.69 110.73 809.69 110.63 817.79C110.63 818.69 109.53 819.19 108.83 818.49C105.43 815.29 102.93 813.09 102.73 813.39C102.53 813.69 104.63 816.19 107.83 819.49C108.43 820.19 108.03 821.29 107.13 821.29C99.03 821.39 93.03 821.89 93.03 822.39C93.03 822.89 99.03 823.39 107.13 823.49C108.03 823.49 108.53 824.59 107.83 825.29C104.63 828.69 102.43 831.19 102.73 831.39C103.03 831.59 105.53 829.49 108.83 826.29C109.53 825.69 110.63 826.09 110.63 826.99C110.73 835.09 111.23 841.09 111.73 841.09C112.23 841.09 112.73 835.09 112.83 826.99C112.83 826.09 113.93 825.59 114.63 826.29C118.03 829.49 120.53 831.69 120.73 831.39C120.93 831.19 118.83 828.59 115.63 825.29C114.93 824.59 115.43 823.49 116.33 823.49C124.43 823.39 130.43 822.89 130.43 822.39C130.43 821.89 124.43 821.39 116.33 821.29Z" id="aHRyRRHx"></path><path d="M116.33 821.29C115.43 821.29 114.93 820.19 115.63 819.49C118.83 816.09 121.03 813.59 120.73 813.39C120.53 813.19 117.93 815.29 114.63 818.49C113.93 819.09 112.83 818.69 112.83 817.79C112.73 809.69 112.23 803.69 111.73 803.69C111.23 803.69 110.73 809.69 110.63 817.79C110.63 818.69 109.53 819.19 108.83 818.49C105.43 815.29 102.93 813.09 102.73 813.39C102.53 813.69 104.63 816.19 107.83 819.49C108.43 820.19 108.03 821.29 107.13 821.29C99.03 821.39 93.03 821.89 93.03 822.39C93.03 822.89 99.03 823.39 107.13 823.49C108.03 823.49 108.53 824.59 107.83 825.29C104.63 828.69 102.43 831.19 102.73 831.39C103.03 831.59 105.53 829.49 108.83 826.29C109.53 825.69 110.63 826.09 110.63 826.99C110.73 835.09 111.23 841.09 111.73 841.09C112.23 841.09 112.73 835.09 112.83 826.99C112.83 826.09 113.93 825.59 114.63 826.29C118.03 829.49 120.53 831.69 120.73 831.39C120.93 831.19 118.83 828.59 115.63 825.29C114.93 824.59 115.43 823.49 116.33 823.49C124.43 823.39 130.43 822.89 130.43 822.39C130.43 821.89 124.43 821.39 116.33 821.29Z" id="jfyU6OZcM"></path><path d="M373.43 437.86C399.49 450.63 413.96 457.72 416.85 459.14C438.33 510.22 450.27 538.6 452.66 544.28C453.67 546.64 455.53 548.16 457.72 548.16C460.93 548.16 463.47 544.95 463.47 540.9C463.47 536.97 463.47 517.32 463.47 481.95C463.47 449.92 463.47 432.13 463.47 428.57C463.47 415.73 458.4 403.74 450.12 396.47C441.77 389.29 420.88 371.33 387.45 342.59C385.59 355.29 380.91 387.05 373.43 437.86Z" id="aFzW3cTSy"></path><path d="M373.43 437.86C399.49 450.63 413.96 457.72 416.85 459.14C438.33 510.22 450.27 538.6 452.66 544.28C453.67 546.64 455.53 548.16 457.72 548.16C460.93 548.16 463.47 544.95 463.47 540.9C463.47 536.97 463.47 517.32 463.47 481.95C463.47 449.92 463.47 432.13 463.47 428.57C463.47 415.73 458.4 403.74 450.12 396.47C441.77 389.29 420.88 371.33 387.45 342.59C385.59 355.29 380.91 387.05 373.43 437.86Z" id="f7RUA8Yn7U"></path><path d="M267.02 437.86C240.97 450.63 226.5 457.72 223.6 459.14C202.12 510.22 190.18 538.6 187.79 544.28C186.78 546.64 184.92 548.16 182.73 548.16C179.52 548.16 176.98 544.95 176.98 540.9C176.98 536.97 176.98 517.32 176.98 481.95C176.98 449.92 176.98 432.13 176.98 428.57C176.98 415.73 182.05 403.74 190.33 396.47C198.68 389.29 219.57 371.33 253 342.59C254.87 355.29 259.55 387.05 267.02 437.86Z" id="a16LAZXEpx"></path><path d="M267.02 437.86C240.97 450.63 226.5 457.72 223.6 459.14C202.12 510.22 190.18 538.6 187.79 544.28C186.78 546.64 184.92 548.16 182.73 548.16C179.52 548.16 176.98 544.95 176.98 540.9C176.98 536.97 176.98 517.32 176.98 481.95C176.98 449.92 176.98 432.13 176.98 428.57C176.98 415.73 182.05 403.74 190.33 396.47C198.68 389.29 219.57 371.33 253 342.59C254.87 355.29 259.55 387.05 267.02 437.86Z" id="e236xEN7cH"></path><path d="M320.22 526.03C247.25 541.24 320.22 614.55 320.22 636.67C320.22 614.54 393.2 541.07 320.22 526.03Z" id="a1cxssWxIw"></path><path d="M320.22 526.03C247.25 541.24 320.22 614.55 320.22 636.67C320.22 614.54 393.2 541.07 320.22 526.03Z" id="a4kdCUz2i"></path><path d="M320.22 526.03C260.43 538.36 320.22 598.46 320.22 616.57C320.22 598.46 380.02 538.36 320.22 526.03Z" id="d1QwzLDqA8"></path><path d="M320.22 526.03C260.43 538.36 320.22 598.46 320.22 616.57C320.22 598.46 380.02 538.36 320.22 526.03Z" id="a1PgizkKcQ"></path><path d="M320.22 526.03C274.62 535.49 320.22 581.3 320.22 595.12C320.22 581.3 365.83 535.49 320.22 526.03Z" id="k2ABcieSN"></path><path d="M320.22 526.03C274.62 535.49 320.22 581.3 320.22 595.12C320.22 581.3 365.83 535.49 320.22 526.03Z" id="c27sORo0fd"></path><path d="M320.22 526.03C286.1 533.13 320.22 567.38 320.22 577.72C320.22 567.38 354.35 532.96 320.22 526.03Z" id="lm8l56oH3"></path><path d="M320.22 526.03C286.1 533.13 320.22 567.38 320.22 577.72C320.22 567.38 354.35 532.96 320.22 526.03Z" id="c1bpy7Artl"></path><path d="M373.43 526.03C329.01 535.15 373.43 579.82 373.43 593.26C373.43 579.81 417.86 535.15 373.43 526.03Z" id="cqR7EE9lz"></path><path d="M373.43 526.03C329.01 535.15 373.43 579.82 373.43 593.26C373.43 579.81 417.86 535.15 373.43 526.03Z" id="a1duYW4WMG"></path><path d="M373.43 526.03C337.12 533.63 373.43 570.09 373.43 581.1C373.43 570.08 409.75 533.47 373.43 526.03Z" id="b2XNgIM3Rt"></path><path d="M373.43 526.03C337.12 533.63 373.43 570.09 373.43 581.1C373.43 570.08 409.75 533.47 373.43 526.03Z" id="a4L0XFtX8v"></path><path d="M373.43 526.03C345.73 531.78 373.43 559.68 373.43 568.09C373.43 559.68 401.14 531.78 373.43 526.03Z" id="b9hzV412o"></path><path d="M373.43 526.03C345.73 531.78 373.43 559.68 373.43 568.09C373.43 559.68 401.14 531.78 373.43 526.03Z" id="a640XFTe7"></path><path d="M373.43 526.03C352.66 530.26 373.43 551.17 373.43 557.45C373.43 551.16 394.21 530.26 373.43 526.03Z" id="bpujGqcDe"></path><path d="M373.43 526.03C352.66 530.26 373.43 551.17 373.43 557.45C373.43 551.16 394.21 530.26 373.43 526.03Z" id="cUkzY3K8i"></path><path d="M267.02 526.03C311.44 535.15 267.02 579.82 267.02 593.26C267.02 579.81 222.59 535.15 267.02 526.03Z" id="h1xkKik2bp"></path><path d="M267.02 526.03C311.44 535.15 267.02 579.82 267.02 593.26C267.02 579.81 222.59 535.15 267.02 526.03Z" id="c1kq7GoMwF"></path><path d="M267.02 526.03C303.33 533.63 267.02 570.09 267.02 581.1C267.02 570.08 230.53 533.47 267.02 526.03Z" id="c28po0jIBy"></path><path d="M267.02 526.03C303.33 533.63 267.02 570.09 267.02 581.1C267.02 570.08 230.53 533.47 267.02 526.03Z" id="adJoJDtPe"></path><path d="M267.02 526.03C294.72 531.78 267.02 559.68 267.02 568.09C267.02 559.68 239.14 531.78 267.02 526.03Z" id="cBbJhqBWK"></path><path d="M267.02 526.03C294.72 531.78 267.02 559.68 267.02 568.09C267.02 559.68 239.14 531.78 267.02 526.03Z" id="a2VkUTr80X"></path><path d="M267.02 526.03C287.79 530.26 267.02 551.17 267.02 557.45C267.02 551.16 246.24 530.26 267.02 526.03Z" id="aszsXnBhL"></path><path d="M267.02 526.03C287.79 530.26 267.02 551.17 267.02 557.45C267.02 551.16 246.24 530.26 267.02 526.03Z" id="eBag7I6Ze"></path><path d="M320.22 53.74C275.12 53.74 238.64 159.82 238.64 290.56C238.64 361.34 249.28 424.85 266.34 468.26C273.52 468.26 309.45 468.26 374.11 468.26C392.58 396.98 401.81 337.75 401.81 290.56C401.81 159.82 365.33 53.74 320.22 53.74Z" id="c3DLEJS1qR"></path><path d="M320.22 53.74C275.12 53.74 238.64 159.82 238.64 290.56C238.64 361.34 249.28 424.85 266.34 468.26C273.52 468.26 309.45 468.26 374.11 468.26C392.58 396.98 401.81 337.75 401.81 290.56C401.81 159.82 365.33 53.74 320.22 53.74Z" id="b19jvXDgXb"></path><path d="M266.17 468.26C266.17 468.26 243.87 492.42 238.47 538.03C243.92 538.03 271.17 538.03 320.22 538.03C369.18 538.03 396.37 538.03 401.81 538.03C396.41 492.59 374.11 468.26 374.11 468.26C366.93 468.26 348.96 468.26 320.22 468.26C287.79 468.26 269.77 468.26 266.17 468.26Z" id="bP0tNtVpi"></path><path d="M266.17 468.26C266.17 468.26 243.87 492.42 238.47 538.03C243.92 538.03 271.17 538.03 320.22 538.03C369.18 538.03 396.37 538.03 401.81 538.03C396.41 492.59 374.11 468.26 374.11 468.26C366.93 468.26 348.96 468.26 320.22 468.26C287.79 468.26 269.77 468.26 266.17 468.26Z" id="e48rqp3sWG"></path><path d="M320.22 160.16C343.54 160.16 366 157.62 386.78 153.06C371.91 92.93 347.59 53.74 320.22 53.74C292.86 53.74 268.54 92.93 253.67 153.06C274.45 157.62 296.75 160.16 320.22 160.16Z" id="aPRWRKmIX"></path><path d="M320.22 160.16C343.54 160.16 366 157.62 386.78 153.06C371.91 92.93 347.59 53.74 320.22 53.74C292.86 53.74 268.54 92.93 253.67 153.06C274.45 157.62 296.75 160.16 320.22 160.16Z" id="amfgfFQr3"></path><path d="M344.89 468.26C347.79 468.26 371.04 468.26 373.94 468.26C391 424.85 401.64 361.34 401.64 290.56C401.81 239.38 396.24 191.91 386.61 153.06C380.53 154.41 374.28 155.6 368.03 156.44C389.14 260.32 382.72 375.02 344.89 468.26Z" id="ai5sNMHO3"></path><path d="M344.89 468.26C347.79 468.26 371.04 468.26 373.94 468.26C391 424.85 401.64 361.34 401.64 290.56C401.81 239.38 396.24 191.91 386.61 153.06C380.53 154.41 374.28 155.6 368.03 156.44C389.14 260.32 382.72 375.02 344.89 468.26Z" id="a46ZJE2lU"></path><path d="M374.28 468.43C371.37 468.43 348.13 468.43 345.22 468.43C345.06 468.26 366.34 494.61 368.03 538.19C374.82 538.19 398.59 538.19 401.98 538.19C396.58 492.59 379.82 482.38 374.28 468.43Z" id="a2IGxHRFm"></path><path d="M374.28 468.43C371.37 468.43 348.13 468.43 345.22 468.43C345.06 468.26 366.34 494.61 368.03 538.19C374.82 538.19 398.59 538.19 401.98 538.19C396.58 492.59 379.82 482.38 374.28 468.43Z" id="bVldsxKfY"></path><path d="M386.61 153.23C386.1 151.54 385.77 149.68 385.26 147.99C385.09 147.66 385.09 147.32 384.92 146.98C384.58 145.63 384.24 144.28 383.74 142.93C383.57 142.59 383.57 142.08 383.4 141.74C383.06 140.39 382.56 139.04 382.22 137.69C382.05 137.35 382.05 137.01 381.88 136.68C380.87 133.3 379.85 130.09 378.84 126.88C378.84 126.71 378.67 126.54 378.67 126.2C378.16 124.85 377.83 123.5 377.32 122.15C377.15 121.81 376.98 121.47 376.98 120.97C376.64 119.78 376.14 118.6 375.8 117.42C375.63 117.08 375.46 116.74 375.46 116.24C374.95 115.05 374.62 113.7 374.11 112.52C373.94 112.35 373.94 112.01 373.77 111.85C372.59 108.97 371.41 106.1 370.22 103.4C370.06 103.06 369.89 102.89 369.89 102.55C369.38 101.54 369.04 100.53 368.54 99.51C368.37 99.18 368.2 98.84 368.03 98.5C367.52 97.49 367.18 96.64 366.68 95.63C366.51 95.29 366.34 94.95 366.17 94.62C365.66 93.6 364.99 92.42 364.48 91.41C364.48 91.24 364.31 91.24 364.31 91.07C363.64 89.89 362.96 88.7 362.29 87.52C362.12 87.35 362.12 87.18 361.95 87.01C361.44 86 360.93 85.16 360.26 84.14C360.09 83.81 359.92 83.47 359.75 83.3C359.25 82.45 358.74 81.78 358.4 81.1C358.23 80.76 358.06 80.43 357.72 80.09C357.22 79.41 356.71 78.57 356.2 77.89C356.04 77.56 355.87 77.39 355.7 77.05C354.35 75.19 353 73.33 351.64 71.64C351.47 71.47 351.31 71.31 351.14 70.97C350.63 70.29 350.12 69.78 349.62 69.11C349.45 68.77 349.11 68.6 348.94 68.26C348.43 67.76 347.93 67.25 347.42 66.74C347.25 66.58 346.91 66.24 346.75 66.07C346.24 65.56 345.73 65.06 345.06 64.55C344.89 64.38 344.72 64.21 344.55 64.04C343.87 63.37 343.03 62.69 342.35 62.18C342.18 62.18 342.18 62.01 342.02 62.01C341.34 61.51 340.83 61 340.16 60.49C339.99 60.33 339.65 60.16 339.48 59.99C339.31 59.82 339.14 59.82 338.97 59.65C351.47 90.39 361.27 122.99 368.03 156.61C374.28 155.6 380.53 154.58 386.61 153.23C386.61 153.23 386.61 153.23 386.61 153.23Z" id="i1ttkRoqtL"></path><path d="M386.61 153.23C386.1 151.54 385.77 149.68 385.26 147.99C385.09 147.66 385.09 147.32 384.92 146.98C384.58 145.63 384.24 144.28 383.74 142.93C383.57 142.59 383.57 142.08 383.4 141.74C383.06 140.39 382.56 139.04 382.22 137.69C382.05 137.35 382.05 137.01 381.88 136.68C380.87 133.3 379.85 130.09 378.84 126.88C378.84 126.71 378.67 126.54 378.67 126.2C378.16 124.85 377.83 123.5 377.32 122.15C377.15 121.81 376.98 121.47 376.98 120.97C376.64 119.78 376.14 118.6 375.8 117.42C375.63 117.08 375.46 116.74 375.46 116.24C374.95 115.05 374.62 113.7 374.11 112.52C373.94 112.35 373.94 112.01 373.77 111.85C372.59 108.97 371.41 106.1 370.22 103.4C370.06 103.06 369.89 102.89 369.89 102.55C369.38 101.54 369.04 100.53 368.54 99.51C368.37 99.18 368.2 98.84 368.03 98.5C367.52 97.49 367.18 96.64 366.68 95.63C366.51 95.29 366.34 94.95 366.17 94.62C365.66 93.6 364.99 92.42 364.48 91.41C364.48 91.24 364.31 91.24 364.31 91.07C363.64 89.89 362.96 88.7 362.29 87.52C362.12 87.35 362.12 87.18 361.95 87.01C361.44 86 360.93 85.16 360.26 84.14C360.09 83.81 359.92 83.47 359.75 83.3C359.25 82.45 358.74 81.78 358.4 81.1C358.23 80.76 358.06 80.43 357.72 80.09C357.22 79.41 356.71 78.57 356.2 77.89C356.04 77.56 355.87 77.39 355.7 77.05C354.35 75.19 353 73.33 351.64 71.64C351.47 71.47 351.31 71.31 351.14 70.97C350.63 70.29 350.12 69.78 349.62 69.11C349.45 68.77 349.11 68.6 348.94 68.26C348.43 67.76 347.93 67.25 347.42 66.74C347.25 66.58 346.91 66.24 346.75 66.07C346.24 65.56 345.73 65.06 345.06 64.55C344.89 64.38 344.72 64.21 344.55 64.04C343.87 63.37 343.03 62.69 342.35 62.18C342.18 62.18 342.18 62.01 342.02 62.01C341.34 61.51 340.83 61 340.16 60.49C339.99 60.33 339.65 60.16 339.48 59.99C339.31 59.82 339.14 59.82 338.97 59.65C351.47 90.39 361.27 122.99 368.03 156.61C374.28 155.6 380.53 154.58 386.61 153.23C386.61 153.23 386.61 153.23 386.61 153.23Z" id="d8nesQGth"></path><path d="M281.37 210.66C281.37 232.12 298.77 249.51 320.22 249.51C341.68 249.51 359.08 232.12 359.08 210.66C359.08 189.21 341.68 171.81 320.22 171.81C298.77 171.81 281.37 189.21 281.37 210.66Z" id="e4jZ5hckU"></path><path d="M281.37 210.66C281.37 232.12 298.77 249.51 320.22 249.51C341.68 249.51 359.08 232.12 359.08 210.66C359.08 189.21 341.68 171.81 320.22 171.81C298.77 171.81 281.37 189.21 281.37 210.66Z" id="d88MNZWKUA"></path><path d="M284.75 210.66C284.75 230.25 300.63 246.14 320.22 246.14C339.82 246.14 355.7 230.25 355.7 210.66C355.7 191.07 339.82 175.19 320.22 175.19C300.63 175.19 284.75 191.07 284.75 210.66Z" id="bujqJFOBt"></path><path d="M284.75 210.66C284.75 230.25 300.63 246.14 320.22 246.14C339.82 246.14 355.7 230.25 355.7 210.66C355.7 191.07 339.82 175.19 320.22 175.19C300.63 175.19 284.75 191.07 284.75 210.66Z" id="b4P54FumGG"></path><path d="M287.96 199.35C292.69 185.66 305.7 176.54 320.22 176.54C328.67 176.54 336.78 179.58 343.03 185.32C344.55 186.68 344.72 189.04 343.37 190.56C342.02 192.08 339.65 192.25 338.13 190.9C333.23 186.51 326.81 183.97 320.22 183.97C308.91 183.97 298.77 191.07 295.06 201.71C294.55 203.23 293.03 204.24 291.51 204.24C291.17 204.24 290.66 204.24 290.33 204.07C288.3 203.4 287.29 201.2 287.96 199.35Z" id="adwDpV9JJ"></path><path d="M287.96 199.35C292.69 185.66 305.7 176.54 320.22 176.54C328.67 176.54 336.78 179.58 343.03 185.32C344.55 186.68 344.72 189.04 343.37 190.56C342.02 192.08 339.65 192.25 338.13 190.9C333.23 186.51 326.81 183.97 320.22 183.97C308.91 183.97 298.77 191.07 295.06 201.71C294.55 203.23 293.03 204.24 291.51 204.24C291.17 204.24 290.66 204.24 290.33 204.07C288.3 203.4 287.29 201.2 287.96 199.35Z" id="b2IS8oCZpr"></path><path d="M294.89 210.66C294.89 224.66 306.23 236 320.22 236C334.22 236 345.56 224.66 345.56 210.66C345.56 196.67 334.22 185.32 320.22 185.32C306.23 185.32 294.89 196.67 294.89 210.66Z" id="e12ZDMQsJI"></path><path d="M294.89 210.66C294.89 224.66 306.23 236 320.22 236C334.22 236 345.56 224.66 345.56 210.66C345.56 196.67 334.22 185.32 320.22 185.32C306.23 185.32 294.89 196.67 294.89 210.66Z" id="a3gP4URS1H"></path><path d="M297.76 210.66C297.76 223.07 307.82 233.13 320.22 233.13C332.63 233.13 342.69 223.07 342.69 210.66C342.69 198.25 332.63 188.2 320.22 188.2C307.82 188.2 297.76 198.25 297.76 210.66Z" id="damgzQPZC"></path><path d="M297.76 210.66C297.76 223.07 307.82 233.13 320.22 233.13C332.63 233.13 342.69 223.07 342.69 210.66C342.69 198.25 332.63 188.2 320.22 188.2C307.82 188.2 297.76 198.25 297.76 210.66Z" id="aKOuA9oSz"></path><path d="M303.84 201.2C303.84 207.64 309.06 212.86 315.5 212.86C321.93 212.86 327.15 207.64 327.15 201.2C327.15 194.77 321.93 189.55 315.5 189.55C309.06 189.55 303.84 194.77 303.84 201.2Z" id="b2Qn4AzPMA"></path><path d="M303.84 201.2C303.84 207.64 309.06 212.86 315.5 212.86C321.93 212.86 327.15 207.64 327.15 201.2C327.15 194.77 321.93 189.55 315.5 189.55C309.06 189.55 303.84 194.77 303.84 201.2Z" id="e5NB8CfK4f"></path><path d="M275.63 342.59C275.63 367.22 295.6 387.18 320.22 387.18C344.85 387.18 364.82 367.22 364.82 342.59C364.82 317.96 344.85 297.99 320.22 297.99C295.6 297.99 275.63 317.96 275.63 342.59Z" id="a71LPECajQ"></path><path d="M275.63 342.59C275.63 367.22 295.6 387.18 320.22 387.18C344.85 387.18 364.82 367.22 364.82 342.59C364.82 317.96 344.85 297.99 320.22 297.99C295.6 297.99 275.63 317.96 275.63 342.59Z" id="b1TKdumR0p"></path><path d="M279.68 342.59C279.68 364.98 297.84 383.13 320.22 383.13C342.61 383.13 360.77 364.98 360.77 342.59C360.77 320.2 342.61 302.05 320.22 302.05C297.84 302.05 279.68 320.2 279.68 342.59Z" id="b1fcNthLKQ"></path><path d="M279.68 342.59C279.68 364.98 297.84 383.13 320.22 383.13C342.61 383.13 360.77 364.98 360.77 342.59C360.77 320.2 342.61 302.05 320.22 302.05C297.84 302.05 279.68 320.2 279.68 342.59Z" id="d2SfhgtEFV"></path><path d="M283.23 329.75C288.81 314.04 303.5 303.57 320.22 303.57C329.85 303.57 339.31 307.11 346.41 313.7C348.1 315.22 348.27 317.93 346.75 319.78C345.22 321.47 342.52 321.64 340.66 320.12C335.09 315.05 327.83 312.18 320.22 312.18C307.22 312.18 295.73 320.46 291.34 332.62C290.66 334.14 289.14 335.32 287.29 335.32C286.78 335.32 286.27 335.32 285.93 335.16C283.74 334.31 282.56 331.95 283.23 329.75Z" id="e2SJ2Tfgzr"></path><path d="M283.23 329.75C288.81 314.04 303.5 303.57 320.22 303.57C329.85 303.57 339.31 307.11 346.41 313.7C348.1 315.22 348.27 317.93 346.75 319.78C345.22 321.47 342.52 321.64 340.66 320.12C335.09 315.05 327.83 312.18 320.22 312.18C307.22 312.18 295.73 320.46 291.34 332.62C290.66 334.14 289.14 335.32 287.29 335.32C286.78 335.32 286.27 335.32 285.93 335.16C283.74 334.31 282.56 331.95 283.23 329.75Z" id="e1ICznNy5W"></path><path d="M291.17 342.59C291.17 358.63 304.18 371.64 320.22 371.64C336.27 371.64 349.28 358.63 349.28 342.59C349.28 326.54 336.27 313.53 320.22 313.53C304.18 313.53 291.17 326.54 291.17 342.59Z" id="aTua1Q7mu"></path><path d="M291.17 342.59C291.17 358.63 304.18 371.64 320.22 371.64C336.27 371.64 349.28 358.63 349.28 342.59C349.28 326.54 336.27 313.53 320.22 313.53C304.18 313.53 291.17 326.54 291.17 342.59Z" id="dk870P1UK"></path><path d="M294.55 342.59C294.55 356.77 306.04 368.26 320.22 368.26C334.41 368.26 345.9 356.77 345.9 342.59C345.9 328.41 334.41 316.91 320.22 316.91C306.04 316.91 294.55 328.41 294.55 342.59Z" id="b1clv9TGcQ"></path><path d="M294.55 342.59C294.55 356.77 306.04 368.26 320.22 368.26C334.41 368.26 345.9 356.77 345.9 342.59C345.9 328.41 334.41 316.91 320.22 316.91C306.04 316.91 294.55 328.41 294.55 342.59Z" id="c3M4bmRM3u"></path><path d="M301.48 331.78C301.48 339.15 307.45 345.12 314.82 345.12C322.19 345.12 328.16 339.15 328.16 331.78C328.16 324.41 322.19 318.43 314.82 318.43C307.45 318.43 301.48 324.41 301.48 331.78Z" id="a3gKZTegme"></path><path d="M301.48 331.78C301.48 339.15 307.45 345.12 314.82 345.12C322.19 345.12 328.16 339.15 328.16 331.78C328.16 324.41 322.19 318.43 314.82 318.43C307.45 318.43 301.48 324.41 301.48 331.78Z" id="b2mU54NvXb"></path><path d="M163.98 -53.69C162.46 -53.69 161.61 -55.55 162.79 -56.73C168.2 -62.48 171.91 -66.7 171.41 -67.04C171.07 -67.38 166.68 -63.83 161.1 -58.42C159.92 -57.41 158.06 -58.09 158.06 -59.61C157.89 -73.29 157.05 -83.42 156.21 -83.42C155.36 -83.42 154.52 -73.29 154.35 -59.61C154.35 -58.09 152.49 -57.24 151.31 -58.42C145.56 -63.83 141.34 -67.55 141 -67.04C140.66 -66.7 144.21 -62.31 149.62 -56.73C150.63 -55.55 149.96 -53.69 148.44 -53.69C134.75 -53.53 124.62 -52.68 124.62 -51.84C124.62 -50.99 134.75 -50.15 148.44 -49.98C149.96 -49.98 150.8 -48.12 149.62 -46.94C144.21 -41.19 140.5 -36.97 141 -36.63C141.34 -36.3 145.73 -39.84 151.31 -45.25C152.49 -46.26 154.35 -45.59 154.35 -44.07C154.52 -30.38 155.36 -20.25 156.21 -20.25C157.05 -20.25 157.89 -30.38 158.06 -44.07C158.06 -45.59 159.92 -46.43 161.1 -45.25C166.85 -39.84 171.07 -36.13 171.41 -36.63C171.75 -36.97 168.2 -41.36 162.79 -46.94C161.61 -48.12 162.46 -49.98 163.98 -49.98C177.66 -50.15 187.79 -50.99 187.79 -51.84C187.79 -52.68 177.66 -53.53 163.98 -53.69Z" id="doZB41VCh"></path><path d="M163.98 -53.69C162.46 -53.69 161.61 -55.55 162.79 -56.73C168.2 -62.48 171.91 -66.7 171.41 -67.04C171.07 -67.38 166.68 -63.83 161.1 -58.42C159.92 -57.41 158.06 -58.09 158.06 -59.61C157.89 -73.29 157.05 -83.42 156.21 -83.42C155.36 -83.42 154.52 -73.29 154.35 -59.61C154.35 -58.09 152.49 -57.24 151.31 -58.42C145.56 -63.83 141.34 -67.55 141 -67.04C140.66 -66.7 144.21 -62.31 149.62 -56.73C150.63 -55.55 149.96 -53.69 148.44 -53.69C134.75 -53.53 124.62 -52.68 124.62 -51.84C124.62 -50.99 134.75 -50.15 148.44 -49.98C149.96 -49.98 150.8 -48.12 149.62 -46.94C144.21 -41.19 140.5 -36.97 141 -36.63C141.34 -36.3 145.73 -39.84 151.31 -45.25C152.49 -46.26 154.35 -45.59 154.35 -44.07C154.52 -30.38 155.36 -20.25 156.21 -20.25C157.05 -20.25 157.89 -30.38 158.06 -44.07C158.06 -45.59 159.92 -46.43 161.1 -45.25C166.85 -39.84 171.07 -36.13 171.41 -36.63C171.75 -36.97 168.2 -41.36 162.79 -46.94C161.61 -48.12 162.46 -49.98 163.98 -49.98C177.66 -50.15 187.79 -50.99 187.79 -51.84C187.79 -52.68 177.66 -53.53 163.98 -53.69Z" id="bJyxTZ2WG"></path><path d="M132.39 350.86C130.87 350.86 130.02 349.01 131.21 347.82C136.61 342.08 140.33 337.86 139.82 337.52C139.48 337.18 135.09 340.73 129.52 346.13C128.33 347.15 126.48 346.47 126.48 344.95C126.31 331.27 125.46 321.14 124.62 321.14C123.77 321.14 122.93 331.27 122.76 344.95C122.76 346.47 120.9 347.32 119.72 346.13C113.98 340.73 109.75 337.01 109.42 337.52C109.08 337.86 112.62 342.25 118.03 347.82C119.04 349.01 118.37 350.86 116.85 350.86C103.17 351.03 93.03 351.88 93.03 352.72C93.03 353.57 103.17 354.41 116.85 354.58C118.37 354.58 119.21 356.44 118.03 357.62C112.62 363.36 108.91 367.59 109.42 367.93C109.75 368.26 114.14 364.72 119.72 359.31C120.9 358.3 122.76 358.97 122.76 360.49C122.93 374.18 123.77 384.31 124.62 384.31C125.46 384.31 126.31 374.18 126.48 360.49C126.48 358.97 128.33 358.13 129.52 359.31C135.26 364.72 139.48 368.43 139.82 367.93C140.16 367.59 136.61 363.2 131.21 357.62C130.19 356.44 130.87 354.58 132.39 354.58C146.07 354.41 156.21 353.57 156.21 352.72C156.21 351.88 146.07 351.03 132.39 350.86Z" id="a1eiKzTihr"></path><path d="M132.39 350.86C130.87 350.86 130.02 349.01 131.21 347.82C136.61 342.08 140.33 337.86 139.82 337.52C139.48 337.18 135.09 340.73 129.52 346.13C128.33 347.15 126.48 346.47 126.48 344.95C126.31 331.27 125.46 321.14 124.62 321.14C123.77 321.14 122.93 331.27 122.76 344.95C122.76 346.47 120.9 347.32 119.72 346.13C113.98 340.73 109.75 337.01 109.42 337.52C109.08 337.86 112.62 342.25 118.03 347.82C119.04 349.01 118.37 350.86 116.85 350.86C103.17 351.03 93.03 351.88 93.03 352.72C93.03 353.57 103.17 354.41 116.85 354.58C118.37 354.58 119.21 356.44 118.03 357.62C112.62 363.36 108.91 367.59 109.42 367.93C109.75 368.26 114.14 364.72 119.72 359.31C120.9 358.3 122.76 358.97 122.76 360.49C122.93 374.18 123.77 384.31 124.62 384.31C125.46 384.31 126.31 374.18 126.48 360.49C126.48 358.97 128.33 358.13 129.52 359.31C135.26 364.72 139.48 368.43 139.82 367.93C140.16 367.59 136.61 363.2 131.21 357.62C130.19 356.44 130.87 354.58 132.39 354.58C146.07 354.41 156.21 353.57 156.21 352.72C156.21 351.88 146.07 351.03 132.39 350.86Z" id="a6ctf7Er5"></path><path d="M547.08 255.76C545.56 255.76 544.72 253.91 545.9 252.72C551.31 246.98 555.02 242.76 554.51 242.42C554.18 242.08 549.78 245.63 544.21 251.03C543.03 252.05 541.17 251.37 541.17 249.85C541 236.17 540.16 226.03 539.31 226.03C538.47 226.03 537.62 236.17 537.45 249.85C537.45 251.37 535.6 252.22 534.41 251.03C528.67 245.63 524.45 241.91 524.11 242.42C523.77 242.76 527.32 247.15 532.72 252.72C533.74 253.91 533.06 255.76 531.54 255.76C517.86 255.93 507.72 256.78 507.72 257.62C507.72 258.47 517.86 259.31 531.54 259.48C533.06 259.48 533.91 261.34 532.72 262.52C527.32 268.26 523.6 272.49 524.11 272.82C524.62 273.16 528.84 269.62 534.41 264.21C535.6 263.2 537.45 263.87 537.45 265.39C537.62 279.07 538.47 289.21 539.31 289.21C540.16 289.21 541 279.07 541.17 265.39C541.17 263.87 543.03 263.03 544.21 264.21C549.95 269.62 554.18 273.33 554.51 272.82C554.85 272.32 551.31 268.09 545.9 262.52C544.72 261.34 545.56 259.48 547.08 259.48C560.76 259.31 570.9 258.47 570.9 257.62C570.9 256.78 560.76 255.93 547.08 255.76Z" id="aCnGfBcTJ"></path><path d="M547.08 255.76C545.56 255.76 544.72 253.91 545.9 252.72C551.31 246.98 555.02 242.76 554.51 242.42C554.18 242.08 549.78 245.63 544.21 251.03C543.03 252.05 541.17 251.37 541.17 249.85C541 236.17 540.16 226.03 539.31 226.03C538.47 226.03 537.62 236.17 537.45 249.85C537.45 251.37 535.6 252.22 534.41 251.03C528.67 245.63 524.45 241.91 524.11 242.42C523.77 242.76 527.32 247.15 532.72 252.72C533.74 253.91 533.06 255.76 531.54 255.76C517.86 255.93 507.72 256.78 507.72 257.62C507.72 258.47 517.86 259.31 531.54 259.48C533.06 259.48 533.91 261.34 532.72 262.52C527.32 268.26 523.6 272.49 524.11 272.82C524.62 273.16 528.84 269.62 534.41 264.21C535.6 263.2 537.45 263.87 537.45 265.39C537.62 279.07 538.47 289.21 539.31 289.21C540.16 289.21 541 279.07 541.17 265.39C541.17 263.87 543.03 263.03 544.21 264.21C549.95 269.62 554.18 273.33 554.51 272.82C554.85 272.32 551.31 268.09 545.9 262.52C544.72 261.34 545.56 259.48 547.08 259.48C560.76 259.31 570.9 258.47 570.9 257.62C570.9 256.78 560.76 255.93 547.08 255.76Z" id="epRHSNccf"></path><path d="M554.01 -27.01C551.14 -27.01 549.62 -30.55 551.64 -32.75C561.95 -43.56 568.7 -51.67 568.03 -52.34C567.35 -53.02 559.24 -46.26 548.43 -35.96C546.24 -33.93 542.86 -35.45 542.69 -38.32C542.35 -64.17 540.83 -83.26 539.31 -83.26C537.79 -83.26 536.27 -64.17 535.93 -38.32C535.93 -35.45 532.39 -33.93 530.19 -35.96C519.38 -46.26 511.27 -53.02 510.6 -52.34C509.92 -51.67 516.68 -43.56 526.98 -32.75C529.01 -30.55 527.49 -27.17 524.62 -27.01C498.77 -26.67 479.68 -25.15 479.68 -23.63C479.68 -21.94 498.77 -20.59 524.62 -20.25C527.49 -20.25 529.01 -16.7 526.98 -14.51C516.68 -3.69 509.92 4.41 510.6 5.09C511.27 5.76 519.38 -0.99 530.19 -11.3C532.39 -13.32 535.76 -11.8 535.93 -8.93C536.27 16.91 537.79 36 539.31 36C540.83 36 542.35 16.91 542.69 -8.93C542.69 -11.8 546.24 -13.32 548.43 -11.3C559.24 -0.99 567.35 5.76 568.03 5.09C568.7 4.41 561.95 -3.69 551.64 -14.51C549.62 -16.7 551.14 -20.25 554.01 -20.25C579.85 -20.59 598.94 -22.11 598.94 -23.63C598.94 -25.32 579.85 -26.67 554.01 -27.01Z" id="ftGbGe3oz"></path><path d="M554.01 -27.01C551.14 -27.01 549.62 -30.55 551.64 -32.75C561.95 -43.56 568.7 -51.67 568.03 -52.34C567.35 -53.02 559.24 -46.26 548.43 -35.96C546.24 -33.93 542.86 -35.45 542.69 -38.32C542.35 -64.17 540.83 -83.26 539.31 -83.26C537.79 -83.26 536.27 -64.17 535.93 -38.32C535.93 -35.45 532.39 -33.93 530.19 -35.96C519.38 -46.26 511.27 -53.02 510.6 -52.34C509.92 -51.67 516.68 -43.56 526.98 -32.75C529.01 -30.55 527.49 -27.17 524.62 -27.01C498.77 -26.67 479.68 -25.15 479.68 -23.63C479.68 -21.94 498.77 -20.59 524.62 -20.25C527.49 -20.25 529.01 -16.7 526.98 -14.51C516.68 -3.69 509.92 4.41 510.6 5.09C511.27 5.76 519.38 -0.99 530.19 -11.3C532.39 -13.32 535.76 -11.8 535.93 -8.93C536.27 16.91 537.79 36 539.31 36C540.83 36 542.35 16.91 542.69 -8.93C542.69 -11.8 546.24 -13.32 548.43 -11.3C559.24 -0.99 567.35 5.76 568.03 5.09C568.7 4.41 561.95 -3.69 551.64 -14.51C549.62 -16.7 551.14 -20.25 554.01 -20.25C579.85 -20.59 598.94 -22.11 598.94 -23.63C598.94 -25.32 579.85 -26.67 554.01 -27.01Z" id="cqPmKkRkF"></path></defs><g><g><g><use xlink:href="#b7CJiKYZfX" opacity="1" fill="#c92127" fill-opacity="1"></use><g><use xlink:href="#b7CJiKYZfX" opacity="1" fill-opacity="0" stroke="#000000" stroke-width="1" stroke-opacity="0"></use></g></g><g><use xlink:href="#a4MG7JKGQL" opacity="1" fill="#000000" fill-opacity="0"></use><g><use xlink:href="#a4MG7JKGQL" opacity="1" fill-opacity="0" stroke="#000000" stroke-width="1" stroke-opacity="0"></use></g></g><g><use xlink:href="#cQ7KERDbl" opacity="1" fill="#c92127" fill-opacity="1"></use><g><use xlink:href="#cQ7KERDbl" opacity="1" fill-opacity="0" stroke="#000000" stroke-width="1" stroke-opacity="0"></use></g></g><g><use xlink:href="#e5k8CBcIoB" opacity="1" fill="#000000" fill-opacity="0"></use><g><use xlink:href="#e5k8CBcIoB" opacity="1" fill-opacity="0" stroke="#000000" stroke-width="1" stroke-opacity="0"></use></g></g><g><use xlink:href="#a1y7LajJcT" opacity="1" fill="#ffffff" fill-opacity="1"></use><g><use xlink:href="#a1y7LajJcT" opacity="1" fill-opacity="0" stroke="#000000" stroke-width="1" stroke-opacity="0"></use></g></g><g><use xlink:href="#b3cTc6zaA" opacity="1" fill="#000000" fill-opacity="0"></use><g><use xlink:href="#b3cTc6zaA" opacity="1" fill-opacity="0" stroke="#000000" stroke-width="1" stroke-opacity="0"></use></g></g><g><use xlink:href="#b6bQjA44F" opacity="1" fill="#ffffff" fill-opacity="1"></use><g><use xlink:href="#b6bQjA44F" opacity="1" fill-opacity="0" stroke="#000000" stroke-width="1" stroke-opacity="0"></use></g></g><g><use xlink:href="#cnVawJ5rG" opacity="1" fill="#000000" fill-opacity="0"></use><g><use xlink:href="#cnVawJ5rG" opacity="1" fill-opacity="0" stroke="#000000" stroke-width="1" stroke-opacity="0"></use></g></g><g><use xlink:href="#aHRyRRHx" opacity="1" fill="#ffffff" fill-opacity="1"></use><g><use xlink:href="#aHRyRRHx" opacity="1" fill-opacity="0" stroke="#000000" stroke-width="1" stroke-opacity="0"></use></g></g><g><use xlink:href="#jfyU6OZcM" opacity="1" fill="#000000" fill-opacity="0"></use><g><use xlink:href="#jfyU6OZcM" opacity="1" fill-opacity="0" stroke="#000000" stroke-width="1" stroke-opacity="0"></use></g></g><g><use xlink:href="#aFzW3cTSy" opacity="1" fill="#468fc6" fill-opacity="1"></use><g><use xlink:href="#aFzW3cTSy" opacity="1" fill-opacity="0" stroke="#000000" stroke-width="1" stroke-opacity="0"></use></g></g><g><use xlink:href="#f7RUA8Yn7U" opacity="1" fill="#000000" fill-opacity="0"></use><g><use xlink:href="#f7RUA8Yn7U" opacity="1" fill-opacity="0" stroke="#000000" stroke-width="1" stroke-opacity="0"></use></g></g><g><use xlink:href="#a16LAZXEpx" opacity="1" fill="#468fc6" fill-opacity="1"></use><g><use xlink:href="#a16LAZXEpx" opacity="1" fill-opacity="0" stroke="#000000" stroke-width="1" stroke-opacity="0"></use></g></g><g><use xlink:href="#e236xEN7cH" opacity="1" fill="#000000" fill-opacity="0"></use><g><use xlink:href="#e236xEN7cH" opacity="1" fill-opacity="0" stroke="#000000" stroke-width="1" stroke-opacity="0"></use></g></g><g><use xlink:href="#a1cxssWxIw" opacity="1" fill="#ed1c24" fill-opacity="1"></use><g><use xlink:href="#a1cxssWxIw" opacity="1" fill-opacity="0" stroke="#000000" stroke-width="1" stroke-opacity="0"></use></g></g><g><use xlink:href="#a4kdCUz2i" opacity="1" fill="#000000" fill-opacity="0"></use><g><use xlink:href="#a4kdCUz2i" opacity="1" fill-opacity="0" stroke="#000000" stroke-width="1" stroke-opacity="0"></use></g></g><g><use xlink:href="#d1QwzLDqA8" opacity="1" fill="#f7941e" fill-opacity="1"></use><g><use xlink:href="#d1QwzLDqA8" opacity="1" fill-opacity="0" stroke="#000000" stroke-width="1" stroke-opacity="0"></use></g></g><g><use xlink:href="#a1PgizkKcQ" opacity="1" fill="#000000" fill-opacity="0"></use><g><use xlink:href="#a1PgizkKcQ" opacity="1" fill-opacity="0" stroke="#000000" stroke-width="1" stroke-opacity="0"></use></g></g><g><use xlink:href="#k2ABcieSN" opacity="1" fill="#fbb040" fill-opacity="1"></use><g><use xlink:href="#k2ABcieSN" opacity="1" fill-opacity="0" stroke="#000000" stroke-width="1" stroke-opacity="0"></use></g></g><g><use xlink:href="#c27sORo0fd" opacity="1" fill="#000000" fill-opacity="0"></use><g><use xlink:href="#c27sORo0fd" opacity="1" fill-opacity="0" stroke="#000000" stroke-width="1" stroke-opacity="0"></use></g></g><g><use xlink:href="#lm8l56oH3" opacity="1" fill="#f9ed32" fill-opacity="1"></use><g><use xlink:href="#lm8l56oH3" opacity="1" fill-opacity="0" stroke="#000000" stroke-width="1" stroke-opacity="0"></use></g></g><g><use xlink:href="#c1bpy7Artl" opacity="1" fill="#000000" fill-opacity="0"></use><g><use xlink:href="#c1bpy7Artl" opacity="1" fill-opacity="0" stroke="#000000" stroke-width="1" stroke-opacity="0"></use></g></g><g><use xlink:href="#cqR7EE9lz" opacity="1" fill="#ed1c24" fill-opacity="1"></use><g><use xlink:href="#cqR7EE9lz" opacity="1" fill-opacity="0" stroke="#000000" stroke-width="1" stroke-opacity="0"></use></g></g><g><use xlink:href="#a1duYW4WMG" opacity="1" fill="#000000" fill-opacity="0"></use><g><use xlink:href="#a1duYW4WMG" opacity="1" fill-opacity="0" stroke="#000000" stroke-width="1" stroke-opacity="0"></use></g></g><g><use xlink:href="#b2XNgIM3Rt" opacity="1" fill="#f7941e" fill-opacity="1"></use><g><use xlink:href="#b2XNgIM3Rt" opacity="1" fill-opacity="0" stroke="#000000" stroke-width="1" stroke-opacity="0"></use></g></g><g><use xlink:href="#a4L0XFtX8v" opacity="1" fill="#000000" fill-opacity="0"></use><g><use xlink:href="#a4L0XFtX8v" opacity="1" fill-opacity="0" stroke="#000000" stroke-width="1" stroke-opacity="0"></use></g></g><g><use xlink:href="#b9hzV412o" opacity="1" fill="#fbb040" fill-opacity="1"></use><g><use xlink:href="#b9hzV412o" opacity="1" fill-opacity="0" stroke="#000000" stroke-width="1" stroke-opacity="0"></use></g></g><g><use xlink:href="#a640XFTe7" opacity="1" fill="#000000" fill-opacity="0"></use><g><use xlink:href="#a640XFTe7" opacity="1" fill-opacity="0" stroke="#000000" stroke-width="1" stroke-opacity="0"></use></g></g><g><use xlink:href="#bpujGqcDe" opacity="1" fill="#f9ed32" fill-opacity="1"></use><g><use xlink:href="#bpujGqcDe" opacity="1" fill-opacity="0" stroke="#000000" stroke-width="1" stroke-opacity="0"></use></g></g><g><use xlink:href="#cUkzY3K8i" opacity="1" fill="#000000" fill-opacity="0"></use><g><use xlink:href="#cUkzY3K8i" opacity="1" fill-opacity="0" stroke="#000000" stroke-width="1" stroke-opacity="0"></use></g></g><g><use xlink:href="#h1xkKik2bp" opacity="1" fill="#ed1c24" fill-opacity="1"></use><g><use xlink:href="#h1xkKik2bp" opacity="1" fill-opacity="0" stroke="#000000" stroke-width="1" stroke-opacity="0"></use></g></g><g><use xlink:href="#c1kq7GoMwF" opacity="1" fill="#000000" fill-opacity="0"></use><g><use xlink:href="#c1kq7GoMwF" opacity="1" fill-opacity="0" stroke="#000000" stroke-width="1" stroke-opacity="0"></use></g></g><g><use xlink:href="#c28po0jIBy" opacity="1" fill="#f7941e" fill-opacity="1"></use><g><use xlink:href="#c28po0jIBy" opacity="1" fill-opacity="0" stroke="#000000" stroke-width="1" stroke-opacity="0"></use></g></g><g><use xlink:href="#adJoJDtPe" opacity="1" fill="#000000" fill-opacity="0"></use><g><use xlink:href="#adJoJDtPe" opacity="1" fill-opacity="0" stroke="#000000" stroke-width="1" stroke-opacity="0"></use></g></g><g><use xlink:href="#cBbJhqBWK" opacity="1" fill="#fbb040" fill-opacity="1"></use><g><use xlink:href="#cBbJhqBWK" opacity="1" fill-opacity="0" stroke="#000000" stroke-width="1" stroke-opacity="0"></use></g></g><g><use xlink:href="#a2VkUTr80X" opacity="1" fill="#000000" fill-opacity="0"></use><g><use xlink:href="#a2VkUTr80X" opacity="1" fill-opacity="0" stroke="#000000" stroke-width="1" stroke-opacity="0"></use></g></g><g><use xlink:href="#aszsXnBhL" opacity="1" fill="#f9ed32" fill-opacity="1"></use><g><use xlink:href="#aszsXnBhL" opacity="1" fill-opacity="0" stroke="#000000" stroke-width="1" stroke-opacity="0"></use></g></g><g><use xlink:href="#eBag7I6Ze" opacity="1" fill="#000000" fill-opacity="0"></use><g><use xlink:href="#eBag7I6Ze" opacity="1" fill-opacity="0" stroke="#000000" stroke-width="1" stroke-opacity="0"></use></g></g><g><use xlink:href="#c3DLEJS1qR" opacity="1" fill="#f3f3f3" fill-opacity="1"></use><g><use xlink:href="#c3DLEJS1qR" opacity="1" fill-opacity="0" stroke="#000000" stroke-width="1" stroke-opacity="0"></use></g></g><g><use xlink:href="#b19jvXDgXb" opacity="1" fill="#000000" fill-opacity="0"></use><g><use xlink:href="#b19jvXDgXb" opacity="1" fill-opacity="0" stroke="#000000" stroke-width="1" stroke-opacity="0"></use></g></g><g><use xlink:href="#bP0tNtVpi" opacity="1" fill="#6ba8db" fill-opacity="1"></use><g><use xlink:href="#bP0tNtVpi" opacity="1" fill-opacity="0" stroke="#000000" stroke-width="1" stroke-opacity="0"></use></g></g><g><use xlink:href="#e48rqp3sWG" opacity="1" fill="#000000" fill-opacity="0"></use><g><use xlink:href="#e48rqp3sWG" opacity="1" fill-opacity="0" stroke="#000000" stroke-width="1" stroke-opacity="0"></use></g></g><g><use xlink:href="#aPRWRKmIX" opacity="1" fill="#6ba8db" fill-opacity="1"></use><g><use xlink:href="#aPRWRKmIX" opacity="1" fill-opacity="0" stroke="#000000" stroke-width="1" stroke-opacity="0"></use></g></g><g><use xlink:href="#amfgfFQr3" opacity="1" fill="#000000" fill-opacity="0"></use><g><use xlink:href="#amfgfFQr3" opacity="1" fill-opacity="0" stroke="#000000" stroke-width="1" stroke-opacity="0"></use></g></g><g><use xlink:href="#ai5sNMHO3" opacity="1" fill="#dcdbdb" fill-opacity="1"></use><g><use xlink:href="#ai5sNMHO3" opacity="1" fill-opacity="0" stroke="#000000" stroke-width="1" stroke-opacity="0"></use></g></g><g><use xlink:href="#a46ZJE2lU" opacity="1" fill="#000000" fill-opacity="0"></use><g><use xlink:href="#a46ZJE2lU" opacity="1" fill-opacity="0" stroke="#000000" stroke-width="1" stroke-opacity="0"></use></g></g><g><use xlink:href="#a2IGxHRFm" opacity="1" fill="#468fc6" fill-opacity="1"></use><g><use xlink:href="#a2IGxHRFm" opacity="1" fill-opacity="0" stroke="#000000" stroke-width="1" stroke-opacity="0"></use></g></g><g><use xlink:href="#bVldsxKfY" opacity="1" fill="#000000" fill-opacity="0"></use><g><use xlink:href="#bVldsxKfY" opacity="1" fill-opacity="0" stroke="#000000" stroke-width="1" stroke-opacity="0"></use></g></g><g><use xlink:href="#i1ttkRoqtL" opacity="1" fill="#468fc6" fill-opacity="1"></use><g><use xlink:href="#i1ttkRoqtL" opacity="1" fill-opacity="0" stroke="#000000" stroke-width="1" stroke-opacity="0"></use></g></g><g><use xlink:href="#d8nesQGth" opacity="1" fill="#000000" fill-opacity="0"></use><g><use xlink:href="#d8nesQGth" opacity="1" fill-opacity="0" stroke="#000000" stroke-width="1" stroke-opacity="0"></use></g></g><g><use xlink:href="#e4jZ5hckU" opacity="1" fill="#25296b" fill-opacity="1"></use><g><use xlink:href="#e4jZ5hckU" opacity="1" fill-opacity="0" stroke="#000000" stroke-width="1" stroke-opacity="0"></use></g></g><g><use xlink:href="#d88MNZWKUA" opacity="1" fill="#000000" fill-opacity="0"></use><g><use xlink:href="#d88MNZWKUA" opacity="1" fill-opacity="0" stroke="#000000" stroke-width="1" stroke-opacity="0"></use></g></g><g><use xlink:href="#bujqJFOBt" opacity="1" fill="#403b89" fill-opacity="1"></use><g><use xlink:href="#bujqJFOBt" opacity="1" fill-opacity="0" stroke="#000000" stroke-width="1" stroke-opacity="0"></use></g></g><g><use xlink:href="#b4P54FumGG" opacity="1" fill="#000000" fill-opacity="0"></use><g><use xlink:href="#b4P54FumGG" opacity="1" fill-opacity="0" stroke="#000000" stroke-width="1" stroke-opacity="0"></use></g></g><g><use xlink:href="#adwDpV9JJ" opacity="1" fill="#4c4b99" fill-opacity="1"></use><g><use xlink:href="#adwDpV9JJ" opacity="1" fill-opacity="0" stroke="#000000" stroke-width="1" stroke-opacity="0"></use></g></g><g><use xlink:href="#b2IS8oCZpr" opacity="1" fill="#000000" fill-opacity="0"></use><g><use xlink:href="#b2IS8oCZpr" opacity="1" fill-opacity="0" stroke="#000000" stroke-width="1" stroke-opacity="0"></use></g></g><g><use xlink:href="#e12ZDMQsJI" opacity="1" fill="#25296b" fill-opacity="1"></use><g><use xlink:href="#e12ZDMQsJI" opacity="1" fill-opacity="0" stroke="#000000" stroke-width="1" stroke-opacity="0"></use></g></g><g><use xlink:href="#a3gP4URS1H" opacity="1" fill="#000000" fill-opacity="0"></use><g><use xlink:href="#a3gP4URS1H" opacity="1" fill-opacity="0" stroke="#000000" stroke-width="1" stroke-opacity="0"></use></g></g><g><use xlink:href="#damgzQPZC" opacity="1" fill="#64c0ed" fill-opacity="1"></use><g><use xlink:href="#damgzQPZC" opacity="1" fill-opacity="0" stroke="#000000" stroke-width="1" stroke-opacity="0"></use></g></g><g><use xlink:href="#aKOuA9oSz" opacity="1" fill="#000000" fill-opacity="0"></use><g><use xlink:href="#aKOuA9oSz" opacity="1" fill-opacity="0" stroke="#000000" stroke-width="1" stroke-opacity="0"></use></g></g><g><use xlink:href="#b2Qn4AzPMA" opacity="1" fill="#92d9f7" fill-opacity="1"></use><g><use xlink:href="#b2Qn4AzPMA" opacity="1" fill-opacity="0" stroke="#000000" stroke-width="1" stroke-opacity="0"></use></g></g><g><use xlink:href="#e5NB8CfK4f" opacity="1" fill="#000000" fill-opacity="0"></use><g><use xlink:href="#e5NB8CfK4f" opacity="1" fill-opacity="0" stroke="#000000" stroke-width="1" stroke-opacity="0"></use></g></g><g><use xlink:href="#a71LPECajQ" opacity="1" fill="#25296b" fill-opacity="1"></use><g><use xlink:href="#a71LPECajQ" opacity="1" fill-opacity="0" stroke="#000000" stroke-width="1" stroke-opacity="0"></use></g></g><g><use xlink:href="#b1TKdumR0p" opacity="1" fill="#000000" fill-opacity="0"></use><g><use xlink:href="#b1TKdumR0p" opacity="1" fill-opacity="0" stroke="#000000" stroke-width="1" stroke-opacity="0"></use></g></g><g><use xlink:href="#b1fcNthLKQ" opacity="1" fill="#403b89" fill-opacity="1"></use><g><use xlink:href="#b1fcNthLKQ" opacity="1" fill-opacity="0" stroke="#000000" stroke-width="1" stroke-opacity="0"></use></g></g><g><use xlink:href="#d2SfhgtEFV" opacity="1" fill="#000000" fill-opacity="0"></use><g><use xlink:href="#d2SfhgtEFV" opacity="1" fill-opacity="0" stroke="#000000" stroke-width="1" stroke-opacity="0"></use></g></g><g><use xlink:href="#e2SJ2Tfgzr" opacity="1" fill="#4c4b99" fill-opacity="1"></use><g><use xlink:href="#e2SJ2Tfgzr" opacity="1" fill-opacity="0" stroke="#000000" stroke-width="1" stroke-opacity="0"></use></g></g><g><use xlink:href="#e1ICznNy5W" opacity="1" fill="#000000" fill-opacity="0"></use><g><use xlink:href="#e1ICznNy5W" opacity="1" fill-opacity="0" stroke="#000000" stroke-width="1" stroke-opacity="0"></use></g></g><g><use xlink:href="#aTua1Q7mu" opacity="1" fill="#25296b" fill-opacity="1"></use><g><use xlink:href="#aTua1Q7mu" opacity="1" fill-opacity="0" stroke="#000000" stroke-width="1" stroke-opacity="0"></use></g></g><g><use xlink:href="#dk870P1UK" opacity="1" fill="#000000" fill-opacity="0"></use><g><use xlink:href="#dk870P1UK" opacity="1" fill-opacity="0" stroke="#000000" stroke-width="1" stroke-opacity="0"></use></g></g><g><use xlink:href="#b1clv9TGcQ" opacity="1" fill="#64c0ed" fill-opacity="1"></use><g><use xlink:href="#b1clv9TGcQ" opacity="1" fill-opacity="0" stroke="#000000" stroke-width="1" stroke-opacity="0"></use></g></g><g><use xlink:href="#c3M4bmRM3u" opacity="1" fill="#000000" fill-opacity="0"></use><g><use xlink:href="#c3M4bmRM3u" opacity="1" fill-opacity="0" stroke="#000000" stroke-width="1" stroke-opacity="0"></use></g></g><g><use xlink:href="#a3gKZTegme" opacity="1" fill="#92d9f7" fill-opacity="1"></use><g><use xlink:href="#a3gKZTegme" opacity="1" fill-opacity="0" stroke="#000000" stroke-width="1" stroke-opacity="0"></use></g></g><g><use xlink:href="#b2mU54NvXb" opacity="1" fill="#000000" fill-opacity="0"></use><g><use xlink:href="#b2mU54NvXb" opacity="1" fill-opacity="0" stroke="#000000" stroke-width="1" stroke-opacity="0"></use></g></g><g><use xlink:href="#doZB41VCh" opacity="1" fill="#ffffff" fill-opacity="1"></use><g><use xlink:href="#doZB41VCh" opacity="1" fill-opacity="0" stroke="#000000" stroke-width="1" stroke-opacity="0"></use></g></g><g><use xlink:href="#bJyxTZ2WG" opacity="1" fill="#000000" fill-opacity="0"></use><g><use xlink:href="#bJyxTZ2WG" opacity="1" fill-opacity="0" stroke="#000000" stroke-width="1" stroke-opacity="0"></use></g></g><g><use xlink:href="#a1eiKzTihr" opacity="1" fill="#ffffff" fill-opacity="1"></use><g><use xlink:href="#a1eiKzTihr" opacity="1" fill-opacity="0" stroke="#000000" stroke-width="1" stroke-opacity="0"></use></g></g><g><use xlink:href="#a6ctf7Er5" opacity="1" fill="#000000" fill-opacity="0"></use><g><use xlink:href="#a6ctf7Er5" opacity="1" fill-opacity="0" stroke="#000000" stroke-width="1" stroke-opacity="0"></use></g></g><g><use xlink:href="#aCnGfBcTJ" opacity="1" fill="#ffffff" fill-opacity="1"></use><g><use xlink:href="#aCnGfBcTJ" opacity="1" fill-opacity="0" stroke="#000000" stroke-width="1" stroke-opacity="0"></use></g></g><g><use xlink:href="#epRHSNccf" opacity="1" fill="#000000" fill-opacity="0"></use><g><use xlink:href="#epRHSNccf" opacity="1" fill-opacity="0" stroke="#000000" stroke-width="1" stroke-opacity="0"></use></g></g><g><use xlink:href="#ftGbGe3oz" opacity="1" fill="#ffffff" fill-opacity="1"></use><g><use xlink:href="#ftGbGe3oz" opacity="1" fill-opacity="0" stroke="#000000" stroke-width="1" stroke-opacity="0"></use></g></g><g><use xlink:href="#cqPmKkRkF" opacity="1" fill="#000000" fill-opacity="0"></use><g><use xlink:href="#cqPmKkRkF" opacity="1" fill-opacity="0" stroke="#000000" stroke-width="1" stroke-opacity="0"></use></g></g></g></g></svg>